<?xml version="1.0" encoding="UTF-8" standalone="no"?>
<svg
   width="900px"
   height="900px"
   viewBox="0 0 900 900"
   version="1.1"
   xml:space="preserve"
   id="SVGRoot"
   sodipodi:docname="logo.svg"
   inkscape:version="1.3.2 (091e20ef0f, 2023-11-25)"
   inkscape:export-filename="studio-cli.png"
   inkscape:export-xdpi="96"
   inkscape:export-ydpi="96"
   xmlns:inkscape="http://www.inkscape.org/namespaces/inkscape"
   xmlns:sodipodi="http://sodipodi.sourceforge.net/DTD/sodipodi-0.dtd"
   xmlns:xlink="http://www.w3.org/1999/xlink"
   xmlns="http://www.w3.org/2000/svg"
   xmlns:svg="http://www.w3.org/2000/svg"><defs
   id="defs2"><inkscape:path-effect
     effect="fillet_chamfer"
     id="path-effect8"
     is_visible="true"
     lpeversion="1"
     nodesatellites_param="F,0,0,1,0,0,0,1 @ F,0,0,1,0,0,0,1 @ F,0,0,1,0,0,0,1 @ F,0,0,1,0,0,0,1 @ F,0,0,1,0,0,0,1 @ F,0,0,1,0,0,0,1 @ F,0,0,1,0,0,0,1 @ F,0,0,1,0,0,0,1"
     radius="0"
     unit="px"
     method="auto"
     mode="F"
     chamfer_steps="1"
     flexible="false"
     use_knot_distance="true"
     apply_no_radius="true"
     apply_with_radius="true"
     only_selected="false"
     hide_knots="false" /><inkscape:path-effect
     effect="fillet_chamfer"
     id="path-effect6"
     is_visible="true"
     lpeversion="1"
     nodesatellites_param="F,0,0,1,0,0,0,1 @ F,0,0,1,0,0,0,1 @ F,0,0,1,0,0,0,1 @ F,0,0,1,0,0,0,1 @ F,0,0,1,0,0,0,1 @ F,0,0,1,0,0,0,1 @ F,0,0,1,0,0,0,1 @ F,0,0,1,0,0,0,1"
     radius="0"
     unit="px"
     method="auto"
     mode="F"
     chamfer_steps="1"
     flexible="false"
     use_knot_distance="true"
     apply_no_radius="true"
     apply_with_radius="true"
     only_selected="false"
     hide_knots="false" /><linearGradient
     id="linearGradient1"
     inkscape:collect="always"><stop
       style="stop-color:#000000;stop-opacity:1;"
       offset="0"
       id="stop1" /><stop
       style="stop-color:#000000;stop-opacity:0;"
       offset="1"
       id="stop2" /></linearGradient><inkscape:path-effect
     effect="fillet_chamfer"
     id="path-effect73"
     is_visible="true"
     lpeversion="1"
     nodesatellites_param="F,0,0,1,0,0,0,1 @ F,0,0,1,0,0,0,1 @ F,0,0,1,0,0,0,1 @ F,0,0,1,0,0,0,1 @ F,0,0,1,0,0,0,1 @ F,0,0,1,0,0,0,1 @ F,0,0,1,0,0,0,1 @ F,0,0,1,0,0,0,1"
     radius="0"
     unit="px"
     method="auto"
     mode="F"
     chamfer_steps="1"
     flexible="false"
     use_knot_distance="true"
     apply_no_radius="true"
     apply_with_radius="true"
     only_selected="false"
     hide_knots="false" /><inkscape:path-effect
     effect="fillet_chamfer"
     id="path-effect66"
     is_visible="true"
     lpeversion="1"
     nodesatellites_param="F,0,0,1,0,0,0,1 @ F,0,0,1,0,0,0,1 @ F,0,0,1,0,0,0,1 @ F,0,0,1,0,0,0,1 @ F,0,0,1,0,0,0,1 @ F,0,0,1,0,0,0,1 @ F,0,0,1,0,0,0,1 @ F,0,0,1,0,0,0,1"
     radius="0"
     unit="px"
     method="auto"
     mode="F"
     chamfer_steps="1"
     flexible="false"
     use_knot_distance="true"
     apply_no_radius="true"
     apply_with_radius="true"
     only_selected="false"
     hide_knots="false" /><linearGradient
     id="linearGradient44"
     inkscape:collect="always"><stop
       style="stop-color:#3de9ff;stop-opacity:1;"
       offset="0"
       id="stop44" /><stop
       style="stop-color:#ff87fd;stop-opacity:1;"
       offset="1"
       id="stop45" /></linearGradient><linearGradient
     id="linearGradient30"
     inkscape:collect="always"><stop
       style="stop-color:#4eee00;stop-opacity:1;"
       offset="0"
       id="stop31" /><stop
       style="stop-color:#4eee00;stop-opacity:0;"
       offset="1"
       id="stop32" /></linearGradient><linearGradient
     id="swatch19"
     inkscape:swatch="solid"><stop
       style="stop-color:#bababa;stop-opacity:1;"
       offset="0"
       id="stop19" /></linearGradient><inkscape:path-effect
     effect="fillet_chamfer"
     id="path-effect13"
     is_visible="true"
     lpeversion="1"
     nodesatellites_param="F,0,0,1,0,0,0,1 @ F,0,0,1,0,0,0,1 @ F,0,0,1,0,0,0,1 @ F,0,0,1,0,0,0,1 @ F,0,0,1,0,0,0,1 @ F,0,0,1,0,0,0,1 @ F,0,0,1,0,0,0,1 @ F,0,0,1,0,0,0,1"
     radius="0"
     unit="px"
     method="auto"
     mode="F"
     chamfer_steps="1"
     flexible="false"
     use_knot_distance="true"
     apply_no_radius="true"
     apply_with_radius="true"
     only_selected="false"
     hide_knots="false" /><inkscape:path-effect
     effect="fillet_chamfer"
     id="path-effect12"
     is_visible="true"
     lpeversion="1"
     nodesatellites_param="F,0,0,1,0,0,0,1 @ F,0,0,1,0,0,0,1 @ F,0,0,1,0,0,0,1 @ F,0,0,1,0,0,0,1 @ F,0,0,1,0,0,0,1 @ F,0,0,1,0,0,0,1 @ F,0,0,1,0,0,0,1 @ F,0,0,1,0,0,0,1"
     radius="0"
     unit="px"
     method="auto"
     mode="F"
     chamfer_steps="1"
     flexible="false"
     use_knot_distance="true"
     apply_no_radius="true"
     apply_with_radius="true"
     only_selected="false"
     hide_knots="false" /><linearGradient
     id="linearGradient8"
     inkscape:collect="always"><stop
       style="stop-color:#383838;stop-opacity:1;"
       offset="0"
       id="stop8" /><stop
       style="stop-color:#848484;stop-opacity:0;"
       offset="1"
       id="stop9" /></linearGradient><linearGradient
     inkscape:collect="always"
     xlink:href="#linearGradient8"
     id="linearGradient11"
     x1="852.70605"
     y1="871.4574"
     x2="847.87006"
     y2="51.338467"
     gradientUnits="userSpaceOnUse" /><filter
     inkscape:collect="always"
     style="color-interpolation-filters:sRGB"
     id="filter12"
     x="-0.059379968"
     y="-0.059379968"
     width="1.1187599"
     height="1.1187599"><feGaussianBlur
       inkscape:collect="always"
       stdDeviation="18.661968"
       id="feGaussianBlur12" /></filter><radialGradient
     inkscape:collect="always"
     xlink:href="#linearGradient30"
     id="radialGradient32"
     cx="450.66412"
     cy="445.99518"
     fx="450.66412"
     fy="445.99518"
     r="449.78814"
     gradientUnits="userSpaceOnUse" /><linearGradient
     inkscape:collect="always"
     xlink:href="#linearGradient44"
     id="linearGradient45"
     x1="45.630875"
     y1="446.68864"
     x2="855.62974"
     y2="446.68864"
     gradientUnits="userSpaceOnUse" /><clipPath
     clipPathUnits="userSpaceOnUse"
     id="clipPath73"><path
       style="opacity:1;mix-blend-mode:normal;fill:#000000;fill-opacity:1;stroke:url(#linearGradient73);stroke-width:20;stroke-dasharray:none;stroke-opacity:1;paint-order:fill markers stroke"
       id="path73"
       width="804.08386"
       height="804.08386"
       x="48.588375"
       y="44.646706"
       inkscape:label="BG"
       sodipodi:type="rect"
       ry="100.67255"
       d="m 149.26092,44.646706 h 602.73877 c 55.77259,0 100.67255,44.899955 100.67255,100.672544 v 602.73877 c 0,55.77259 -44.89996,100.67255 -100.67255,100.67255 H 149.26092 c -55.772589,0 -100.672545,-44.89996 -100.672545,-100.67255 V 145.31925 c 0,-55.772589 44.899956,-100.672544 100.672545,-100.672544 z"
       inkscape:path-effect="#path-effect13"
       transform="matrix(0.9840509,0,0,0.99410802,-1.7891242,0.41615391)" /></clipPath><linearGradient
     inkscape:collect="always"
     xlink:href="#linearGradient44"
     id="linearGradient73"
     gradientUnits="userSpaceOnUse"
     x1="45.630875"
     y1="446.68864"
     x2="855.62974"
     y2="446.68864" /><clipPath
     clipPathUnits="userSpaceOnUse"
     id="clipPath147"><path
       id="path148"
       style="opacity:1;stroke:#000000;stroke-width:20.9;paint-order:fill markers stroke"
       d="m 119.09961,155.11719 c -1.97825,0.0329 -3.86261,1.08325 -4.93359,2.99219 -1.77897,2.86014 -1.40453,7.40661 0.85546,10.2832 1.41041,1.80866 3.34358,2.76089 5.02735,4.10547 85.43718,62.07045 170.86973,124.15456 256.31055,186.21679 -85.72613,62.2694 -171.44354,124.56016 -257.16602,186.83789 -1.68155,1.34472 -3.62729,2.28903 -5.01172,4.13086 -2.23142,2.90824 -2.5536,7.45558 -0.74023,10.28321 1.73355,2.99177 5.48764,3.80421 8.38867,1.83398 l 0.041,-0.0273 0.082,-0.0566 C 210.154,497.65167 298.34256,433.5595 386.53906,369.48438 c 1.66706,-1.3314 3.58806,-2.27256 4.97266,-4.08008 0.41828,-0.53655 0.74766,-1.14198 1.0332,-1.77149 0.18218,-0.22732 0.37134,-0.44668 0.52344,-0.70898 1.8243,-2.84481 1.48449,-7.43085 -0.78125,-10.33594 -1.38219,-1.80997 -3.30514,-2.74699 -4.9707,-4.08008 C 299.1198,284.4327 210.92939,220.34052 122.72852,156.27539 l -0.082,-0.0566 -0.041,-0.0273 c -1.09836,-0.74758 -2.31891,-1.09396 -3.50586,-1.07422 z m 273.18945,199.94726 c 0.2119,0.3294 0.38785,0.68363 0.53906,1.05274 -0.15355,-0.36874 -0.32828,-0.72507 -0.53906,-1.05274 z m 0.73047,1.62305 c 0.0486,0.15394 0.10139,0.30454 0.14063,0.46289 -0.0409,-0.15759 -0.0908,-0.30981 -0.14063,-0.46289 z" /></clipPath><linearGradient
     inkscape:collect="always"
     xlink:href="#linearGradient44"
     id="linearGradient157"
     x1="34.555229"
     y1="512.6438"
     x2="768.2666"
     y2="509.57623"
     gradientUnits="userSpaceOnUse" /><clipPath
     clipPathUnits="userSpaceOnUse"
     id="clipPath163"><path
       id="path163"
       style="color:#000000;-inkscape-font-specification:'Droid Sans';display:inline;fill:#000000;stroke-width:0.945472;-inkscape-stroke:none;paint-order:fill markers stroke"
       d="m 131.20683,88.761599 0.8796,0.531361 c -8.30625,1.347193 -15.56486,8.38217 -15.56753,17.50931 v 0.002 41.667 0.002 c 9.5e-4,6.79842 3.89171,13.06022 9.98555,16.0741 l 157.14311,77.71914 -156.38117,68.4176 -0.002,0.002 c -6.50178,2.8453 -10.74501,9.33487 -10.74562,16.43198 v 41.92813 0.004 c 0.004,12.65823 13.90884,21.57335 25.41488,16.29686 L 382.55997,274.92744 h 0.002 c 6.34626,-2.91299 10.45314,-9.3158 10.45429,-16.29868 v -0.002 -26.5607 -0.002 c -8.3e-4,-6.66631 -3.74044,-12.82902 -9.65314,-15.90792 h -0.002 L 154.97084,100.76741 c -11.9364,-6.994556 -20.42294,-11.794842 -21.19432,-11.744695 -0.52742,0.03429 -1.03851,0.169586 -1.55936,0.250159 z m 257.9529,369.180051 a 7.4825985,8.0406943 0 0 0 -7.48122,8.03979 v 43.54594 a 7.4825985,8.0406943 0 0 0 7.48122,8.03978 h 246.02515 a 7.4825985,8.0406943 0 0 0 7.48123,-8.03978 v -43.54594 a 7.4825985,8.0406943 0 0 0 -7.48123,-8.03979 z" /></clipPath><linearGradient
     inkscape:collect="always"
     xlink:href="#linearGradient1"
     id="linearGradient2"
     x1="116.51877"
     y1="303.16438"
     x2="642.66611"
     y2="303.16438"
     gradientUnits="userSpaceOnUse" /><clipPath
     clipPathUnits="userSpaceOnUse"
     id="clipPath163-3"><path
       id="path163-5"
       style="color:#000000;-inkscape-font-specification:'Droid Sans';display:inline;fill:#000000;stroke-width:0.945472;-inkscape-stroke:none;paint-order:fill markers stroke"
       d="m 131.20683,88.761599 0.8796,0.531361 c -8.30625,1.347193 -15.56486,8.38217 -15.56753,17.50931 v 0.002 41.667 0.002 c 9.5e-4,6.79842 3.89171,13.06022 9.98555,16.0741 l 157.14311,77.71914 -156.38117,68.4176 -0.002,0.002 c -6.50178,2.8453 -10.74501,9.33487 -10.74562,16.43198 v 41.92813 0.004 c 0.004,12.65823 13.90884,21.57335 25.41488,16.29686 L 382.55997,274.92744 h 0.002 c 6.34626,-2.91299 10.45314,-9.3158 10.45429,-16.29868 v -0.002 -26.5607 -0.002 c -8.3e-4,-6.66631 -3.74044,-12.82902 -9.65314,-15.90792 h -0.002 L 154.97084,100.76741 c -11.9364,-6.994556 -20.42294,-11.794842 -21.19432,-11.744695 -0.52742,0.03429 -1.03851,0.169586 -1.55936,0.250159 z m 257.9529,369.180051 a 7.4825985,8.0406943 0 0 0 -7.48122,8.03979 v 43.54594 a 7.4825985,8.0406943 0 0 0 7.48122,8.03978 h 246.02515 a 7.4825985,8.0406943 0 0 0 7.48123,-8.03978 v -43.54594 a 7.4825985,8.0406943 0 0 0 -7.48123,-8.03979 z" /></clipPath><linearGradient
     inkscape:collect="always"
     xlink:href="#linearGradient1"
     id="linearGradient4"
     gradientUnits="userSpaceOnUse"
     x1="116.51877"
     y1="303.16438"
     x2="642.66611"
     y2="303.16438" /></defs>
<sodipodi:namedview
   pagecolor="#a9a9a9"
   bordercolor="#292929"
   borderopacity="1"
   inkscape:showpageshadow="2"
   inkscape:pageopacity="0.0"
   inkscape:pagecheckerboard="0"
   inkscape:deskcolor="#232323"
   id="namedview1"
   inkscape:zoom="0.347268"
   inkscape:cx="175.65684"
   inkscape:cy="385.86912"
   inkscape:window-width="1280"
   inkscape:window-height="651"
   inkscape:window-x="0"
   inkscape:window-y="0"
   inkscape:window-maximized="1"
   inkscape:current-layer="layer1"
   showguides="false" />
<style
   type="text/css"
   id="style1">
g.prefab path {
  vector-effect:non-scaling-stroke;
  -inkscape-stroke:hairline;
  fill: none;
  fill-opacity: 1;
  stroke-opacity: 1;
  stroke: #00349c;
}
</style>

<g
   inkscape:groupmode="layer"
   id="layer1"
   inkscape:label="GradientBackground"
   style="display:inline"><path
     style="display:inline;opacity:1;mix-blend-mode:normal;fill:#000000;fill-opacity:1;stroke:none;stroke-width:20;stroke-dasharray:none;stroke-opacity:1;paint-order:fill markers stroke"
     id="path7"
     width="804.08386"
     height="804.08386"
     x="48.588375"
     y="44.646706"
     inkscape:label="BG"
     sodipodi:type="rect"
     ry="100.67255"
     d="m 149.26092,44.646706 h 602.73877 c 55.77259,0 100.67255,44.899955 100.67255,100.672544 v 602.73877 c 0,55.77259 -44.89996,100.67255 -100.67255,100.67255 H 149.26092 c -55.772589,0 -100.672545,-44.89996 -100.672545,-100.67255 V 145.31925 c 0,-55.772589 44.899956,-100.672544 100.672545,-100.672544 z"
     inkscape:path-effect="#path-effect8"
     transform="matrix(1.0262827,0,0,0.99428249,-11.052381,25.779342)" /><path
     style="display:inline;opacity:1;mix-blend-mode:normal;fill:#000000;fill-opacity:1;stroke:url(#linearGradient45);stroke-width:20;stroke-dasharray:none;stroke-opacity:1;paint-order:fill markers stroke"
     id="path72"
     width="804.08386"
     height="804.08386"
     x="48.588375"
     y="44.646706"
     inkscape:label="BG"
     sodipodi:type="rect"
     ry="100.67255"
     d="m 149.26092,44.646706 h 602.73877 c 55.77259,0 100.67255,44.899955 100.67255,100.672544 v 602.73877 c 0,55.77259 -44.89996,100.67255 -100.67255,100.67255 H 149.26092 c -55.772589,0 -100.672545,-44.89996 -100.672545,-100.67255 V 145.31925 c 0,-55.772589 44.899956,-100.672544 100.672545,-100.672544 z"
     inkscape:path-effect="#path-effect73" /><path
     style="display:inline;opacity:1;fill:url(#linearGradient11);fill-opacity:1;stroke:url(#radialGradient32);stroke-width:5.9155;stroke-dasharray:none;paint-order:fill markers stroke;filter:url(#filter12)"
     id="rect2"
     width="804.08386"
     height="804.08386"
     x="48.622208"
     y="43.953266"
     inkscape:label="BGGradient"
     sodipodi:type="rect"
     transform="matrix(0.99124251,0,0,0.98089047,13.164685,10.565144)"
     ry="113.19199"
     d="m 161.8142,43.953266 h 577.69988 c 62.70836,0 113.19199,50.483629 113.19199,113.191994 v 577.69987 c 0,62.70837 -50.48363,113.192 -113.19199,113.192 H 161.8142 c -62.708363,0 -113.191992,-50.48363 -113.191992,-113.192 V 157.14526 c 0,-62.708365 50.483629,-113.191994 113.191992,-113.191994 z"
     inkscape:path-effect="#path-effect12"
     clip-path="url(#clipPath73)" /></g><g
   inkscape:groupmode="layer"
   id="layer3"
   inkscape:label="Terminal Line"><rect
     style="fill:#000000;fill-opacity:1;stroke:url(#linearGradient4);stroke-width:21.332;stroke-linecap:butt;stroke-dasharray:none;stroke-opacity:1;paint-order:fill markers stroke"
     id="rect155-2"
     width="859.80188"
     height="844.60291"
     x="42.600094"
     y="48.660149"
     ry="100.67255"
     clip-path="url(#clipPath163-3)"
     transform="matrix(1.1900386,0,0,1.1981067,-3.3843336,92.996964)"
     rx="233.98131" /><rect
     style="opacity:1;fill:url(#linearGradient157);fill-opacity:1;stroke:url(#linearGradient2);stroke-width:21.332;stroke-linecap:butt;stroke-dasharray:none;stroke-opacity:1;paint-order:fill markers stroke"
     id="rect155"
     width="859.80188"
     height="844.60291"
     x="42.600094"
     y="48.660149"
     ry="100.67255"
     clip-path="url(#clipPath163)"
     transform="matrix(1.1900386,0,0,1.1981067,-8.2931965,76.885214)"
     rx="233.98131" /><g
     id="text158"
     transform="scale(0.98881932,1.0113071)" /></g></svg>
